<?xml version="1.0" standalone="no"?>
<!DOCTYPE svg PUBLIC "-//W3C//DTD SVG 20010904//EN"
 "http://www.w3.org/TR/2001/REC-SVG-20010904/DTD/svg10.dtd">
<svg version="1.0" xmlns="http://www.w3.org/2000/svg"
 width="225.000000pt" height="225.000000pt" viewBox="0 0 225.000000 225.000000"
 preserveAspectRatio="xMidYMid meet">
<metadata>
Created by potrace 1.10, written by Peter Selinger 2001-2011
</metadata>
<g transform="translate(0.000000,225.000000) scale(0.100000,-0.100000)"
fill="#000000" stroke="none">
<path d="M880 2221 c-305 -65 -589 -278 -743 -561 -75 -136 -127 -318 -126
-445 0 -92 12 -70 39 67 51 262 144 444 315 613 160 157 330 245 577 296 77
16 148 34 157 39 28 17 -127 10 -219 -9z"/>
<path d="M1170 2227 c14 -8 75 -24 136 -36 179 -34 295 -81 433 -175 107 -73
168 -131 241 -228 117 -155 173 -283 216 -495 14 -70 29 -134 34 -143 16 -26
11 110 -6 200 -89 473 -522 862 -984 886 -86 5 -93 4 -70 -9z"/>
<path d="M1019 2149 c-214 -22 -431 -121 -592 -268 -127 -118 -251 -322 -299
-497 -18 -67 -22 -106 -22 -254 -1 -153 2 -186 22 -260 26 -94 93 -244 141
-314 54 -79 88 -82 123 -12 38 76 64 94 216 148 48 16 113 43 145 59 63 32 73
31 117 -17 14 -15 54 -41 90 -58 61 -29 72 -31 180 -31 135 0 179 15 258 89
l48 45 90 -38 c49 -21 118 -48 154 -60 85 -28 127 -54 148 -92 25 -46 62 -89
77 -89 25 0 85 81 135 183 35 72 58 137 76 217 24 104 26 129 21 260 -6 166
-29 265 -98 409 -127 267 -372 472 -660 551 -66 17 -239 42 -279 38 -8 0 -49
-4 -91 -9z m293 -53 c200 -39 362 -128 513 -280 195 -198 285 -417 285 -691 0
-131 -17 -228 -61 -350 -29 -81 -122 -245 -138 -245 -5 0 -11 12 -14 28 -9 43
-49 95 -92 119 -22 12 -87 38 -144 58 -57 20 -131 50 -165 68 -33 17 -64 33
-68 35 -5 2 -8 -4 -8 -12 0 -30 -84 -102 -144 -125 -103 -38 -255 -23 -346 34
-36 23 -84 73 -92 96 -2 7 -28 -3 -69 -25 -36 -20 -122 -57 -190 -82 -166 -61
-180 -72 -226 -184 -10 -24 -11 -23 -56 46 -101 156 -147 303 -154 492 -7 159
6 250 53 381 50 141 113 239 229 357 148 150 310 240 505 279 88 18 291 18
382 1z"/>
<path d="M1019 1800 c-71 -21 -160 -81 -251 -169 -54 -51 -98 -96 -98 -100 0
-3 15 -13 32 -21 54 -25 66 -54 70 -162 4 -89 2 -97 -15 -102 -17 -4 -19 -11
-14 -42 10 -58 49 -129 73 -132 17 -2 25 -14 33 -47 6 -25 25 -60 41 -79 24
-27 29 -40 24 -61 -9 -35 15 -60 91 -96 104 -50 244 -37 312 28 29 27 34 37
29 61 -5 21 -2 33 15 48 28 25 59 87 59 119 0 20 5 25 25 25 19 0 28 9 45 47
31 71 25 102 -29 130 -1 1 7 12 19 25 83 87 79 259 -8 351 -30 32 -81 60 -127
71 -16 4 -47 23 -68 43 -56 50 -112 73 -177 72 -30 0 -67 -4 -81 -9z m157 -45
c20 -8 55 -32 80 -53 25 -22 64 -45 91 -52 93 -27 152 -108 153 -211 0 -45 -7
-69 -35 -122 l-35 -66 21 -36 c26 -43 17 -74 -37 -126 -19 -18 -34 -41 -34
-50 0 -9 -17 -41 -37 -70 -20 -30 -39 -70 -42 -89 -13 -78 -172 -108 -282 -52
-44 22 -55 33 -60 59 -3 17 -20 53 -37 78 -17 26 -34 59 -37 75 -3 15 -24 43
-45 63 -43 38 -56 73 -45 115 4 15 10 72 12 127 4 105 4 105 -52 181 -15 20
-14 24 10 52 56 67 191 160 265 183 42 12 109 10 146 -6z"/>
<path d="M2223 1070 c-6 -19 -19 -73 -28 -120 -63 -329 -241 -589 -517 -756
-103 -62 -229 -108 -375 -137 -155 -31 -184 -46 -88 -46 181 -1 419 89 595
225 67 51 182 170 233 241 118 162 206 423 195 578 l-3 50 -12 -35z"/>
<path d="M13 1005 c30 -462 417 -890 887 -979 90 -17 226 -22 200 -6 -9 5 -74
20 -144 35 -156 31 -279 76 -384 139 -281 170 -449 415 -517 753 -33 159 -50
184 -42 58z"/>
</g>
</svg>
