<?xml version="1.0" standalone="no"?>
<!DOCTYPE svg PUBLIC "-//W3C//DTD SVG 20010904//EN"
 "http://www.w3.org/TR/2001/REC-SVG-20010904/DTD/svg10.dtd">
<svg version="1.0" xmlns="http://www.w3.org/2000/svg"
 width="300.000000pt" height="300.000000pt" viewBox="0 0 300.000000 300.000000"
 preserveAspectRatio="xMidYMid meet">
<metadata>
Created by potrace 1.10, written by Peter Selinger 2001-2011
</metadata>
<g transform="translate(0.000000,300.000000) scale(0.100000,-0.100000)"
fill="#000000" stroke="none">
<path d="M454 2451 c-49 -12 -94 -50 -115 -95 -18 -39 -19 -79 -19 -716 0
-635 2 -677 19 -715 21 -46 54 -79 94 -94 18 -7 164 -11 412 -11 l383 0 -39
-92 c-21 -50 -39 -97 -39 -104 0 -10 -31 -14 -126 -16 -106 -3 -129 -6 -137
-20 -8 -12 -7 -21 2 -32 12 -14 78 -16 611 -16 638 0 627 -1 618 47 -3 16 -18
19 -131 23 l-128 5 -40 100 c-21 55 -39 101 -39 103 0 1 171 2 380 2 301 0
387 3 413 14 39 16 82 61 96 99 8 19 11 251 11 705 0 643 -1 679 -19 719 -12
26 -35 52 -62 70 l-43 28 -1035 2 c-570 0 -1050 -2 -1067 -6z m2107 -77 c59
-30 59 -28 59 -654 l0 -570 -1117 0 -1118 0 5 591 5 591 33 29 32 29 1036 0
c920 0 1038 -2 1065 -16z m59 -1339 c0 -62 -22 -111 -62 -135 -33 -20 -48 -20
-1051 -20 -1076 0 -1059 -1 -1097 45 -9 10 -17 47 -20 87 l-5 68 1117 0 1118
0 0 -45z m-875 -307 c21 -51 39 -99 42 -105 4 -10 -57 -13 -285 -13 l-290 0
41 105 42 105 206 0 207 0 37 -92z"/>
<path d="M1639 2244 c-9 -11 -10 -20 -2 -32 9 -15 49 -17 423 -17 374 0 414 2
423 17 8 12 7 21 -2 32 -12 14 -61 16 -421 16 -360 0 -409 -2 -421 -16z"/>
<path d="M905 2199 c-27 -5 -55 -17 -61 -25 -17 -22 117 -428 143 -431 12 -2
74 51 177 150 143 138 158 155 148 173 -15 28 -107 90 -168 113 -62 24 -173
33 -239 20z m260 -103 l78 -39 -119 -113 c-65 -63 -120 -114 -121 -114 -2 0
-3 6 -3 13 0 7 -20 73 -45 147 -24 73 -42 138 -38 143 3 5 42 7 87 5 71 -3 92
-8 161 -42z"/>
<path d="M1639 2094 c-9 -11 -10 -20 -2 -32 9 -15 49 -17 423 -17 374 0 414 2
423 17 8 12 7 21 -2 32 -12 14 -61 16 -421 16 -360 0 -409 -2 -421 -16z"/>
<path d="M725 2065 c-214 -104 -305 -364 -202 -578 43 -90 114 -163 205 -208
65 -33 70 -34 187 -34 112 0 124 2 180 29 90 44 212 167 199 200 -3 7 -83 59
-179 116 l-175 104 -63 196 c-71 220 -67 217 -152 175z m96 -213 c26 -84 54
-165 61 -179 9 -18 63 -57 168 -120 85 -51 156 -97 158 -102 6 -17 -100 -100
-156 -123 -87 -34 -206 -32 -289 6 -69 31 -147 106 -181 172 -68 134 -39 317
69 425 43 43 99 81 113 76 4 -1 30 -71 57 -155z"/>
<path d="M1196 1883 c-83 -82 -152 -157 -154 -169 -2 -17 27 -38 177 -127 99
-59 190 -107 201 -107 16 0 27 14 45 55 49 111 52 247 6 350 -28 63 -89 145
-108 145 -9 0 -84 -66 -167 -147z m210 -16 c23 -51 28 -76 28 -142 1 -86 -18
-168 -37 -163 -7 2 -71 38 -143 81 l-132 78 117 114 c79 77 119 111 127 104 6
-5 24 -37 40 -72z"/>
<path d="M2231 1886 c-8 -10 -11 -94 -11 -287 1 -240 -1 -274 -14 -277 -14 -3
-16 23 -18 200 l-3 203 -119 3 c-71 2 -123 -1 -131 -8 -9 -7 -11 -57 -7 -205
5 -194 5 -195 -17 -195 -21 0 -21 3 -21 154 0 131 -2 155 -16 160 -29 11 -232
7 -240 -5 -4 -6 -6 -78 -5 -160 l2 -149 -28 0 c-27 0 -53 -15 -53 -31 0 -4 7
-15 16 -23 14 -14 72 -16 493 -16 406 0 480 2 491 15 20 24 8 50 -28 55 l-33
5 1 271 c0 237 -1 274 -15 288 -22 22 -226 24 -244 2z m189 -311 l0 -255 -65
0 -65 0 0 255 0 255 65 0 65 0 0 -255z m-290 -80 l0 -175 -70 0 -70 0 0 175 0
175 70 0 70 0 0 -175z m-302 -49 l3 -126 -71 0 -70 0 0 128 0 127 67 -2 68 -1
3 -126z"/>
</g>
</svg>
